# xmcd CD database file
#
# Track frame offsets:
#	150
#	48884
#	64867
#	96621
#	112041
#	128459
#	145217
#	165363
#	191690
#	207376
#	235709
#	257533
#
# Disc length: 4409 seconds
#
# Revision: 0
# Processed by: cddbd v1.5.1PL0 Copyright (c) Steve Scherf et al.
# Submitted via: CDex 1.51
#
DISCID=a611370c
DTITLE=Magnatune - Relaxation Spa
DYEAR=2005
DGENRE=New Age
TTITLE0=Mandlovu Mind (Jami Sieber)
TTITLE1=Gleam (Etherine)
TTITLE2=March Thirty-One (Falling You)
TTITLE3=Secret Solution (Michael Masley)
TTITLE4=Sunday Driver (touchingGrace)
TTITLE5=After (Claire Fitch)
TTITLE6=Reflections (Hans Christian)
TTITLE7=Theoria (Human Response)
TTITLE8=Heaven Sings (Paul Avgerinos)
TTITLE9=Lullabeene (Stargarden)
TTITLE10=Atom (medition mix) (Trancevision)
TTITLE11=Northeastern Corridor (DAC Crowell)
EXTD=YEAR: 2005
EXTT0=
EXTT1=
EXTT2=
EXTT3=
EXTT4=
EXTT5=
EXTT6=
EXTT7=
EXTT8=
EXTT9=
EXTT10=
EXTT11=
PLAYORDER=
